<?xml version="1.0" encoding="utf-8"?>
<!-- Generator: Adobe Illustrator 23.0.4, SVG Export Plug-In . SVG Version: 6.00 Build 0)  -->
<svg version="1.1" id="Layer_1" xmlns="http://www.w3.org/2000/svg" xmlns:xlink="http://www.w3.org/1999/xlink" x="0px" y="0px"
	 viewBox="0 0 276 260" style="enable-background:new 0 0 276 260;" xml:space="preserve">
<style type="text/css">
	.st0{fill:#DD1F2E;}
</style>
<path class="st0" d="M115.8,17.3l63.6,23.9l7.4-13.9l6.7,3.2l-31.1,57.6h6.4c4.9,0.4,12.2,1.4,21.8,2.9c15.8,3,31,9.9,45.4,20.7
	s21.9,24.9,22.3,42.4c0.2,12.1-3.9,23.8-12.2,35.3c-7.5,10.1-15.9,19.2-25.4,27.2l-45.9,27.8h-3.2l-39.8-16.5l-44.6,16.5
	c-1.3,0.4-3.4,0.9-6.4,1.3l-7.1,1c-1.1,0-1.9,0.1-2.6,0.3h-2.6c-1.3,0-2,0.1-2.2,0.3h-2.2c-7.5,0-15.6-1.8-24.4-5.5
	c-7.5-3.2-12.4-9.5-14.8-18.8c-0.2-0.6-0.4-1.3-0.6-1.9v-5.5c0-14.4,9.5-25.2,28.6-32.4c4.3-1.5,8.7-2.5,13.2-2.9l8-0.6
	c0.6,0.4,2.4,0.6,5.1,0.6h2.9c1.3,0.4,3.6,0.6,7.1,0.6c0.9,0.2,2.1,0.3,3.9,0.3l7.7,1l5.1-10c-0.2,0.6-0.9,1-1.9,1h-3.5
	c-0.2,0.2-0.5,0.3-1,0.3h-7.4c-1.1,0-1.9-0.1-2.4-0.2c-0.5-0.1-1.1-0.3-1.8-0.5c-0.6,0-1.1,0-1.3,0c-29.7-3.2-47.8-16.4-54.2-39.5
	v-0.6c-0.2,0-0.3-0.1-0.3-0.3v-1.6c-0.2,0-0.3-0.1-0.3-0.3v-1c0-8.6,2.5-15.5,7.4-20.7c5.8-6.3,12.1-10.7,18.9-13.3
	c1.3-8.4,4.1-16.9,8.3-25.4c4.3-8.5,9.1-15.3,14.4-20.2L115.8,17.3z M51.6,211c-7.1,2.4-11.6,6.3-13.5,11.6
	c-0.4,0.4-0.6,1.1-0.6,1.9v1.9c0,0.2,0.1,0.9,0.3,1.9c0,0.2,0,0.5,0.2,0.8c0.1,0.3,0.3,0.6,0.5,0.8c0,0.2,0,0.4,0,0.6
	c0.4,0.6,1.1,1.6,2.1,2.8s1.9,2.1,2.7,2.7c0.9,0.6,3.1,1.7,6.7,3.2c1.5,0.2,3.9,0.6,7.1,1.3c1.3,0,3,0.2,5.1,0.6
	c1.1,0,1.9,0.1,2.6,0.3h6.1c0.6-0.2,1.8-0.3,3.5-0.3c11.8-1.7,21.2-4.1,28.2-7.1c3.6-1.5,9.8-4.6,18.6-9.4L75.9,212
	c-0.6,0.2-1.5,0.3-2.6,0.3c-0.4,0-1-0.1-1.6-0.3c-0.6,0-1.1,0-1.3,0c-1.3,0-2.2-0.1-2.9-0.3h-3c-0.2,0-0.9-0.1-1.9-0.3h-5.1
	L51.6,211z M60.9,103.3c-0.4,0.6-1.3,1.4-2.6,2.3c0,0.2-0.6,1-1.9,2.3c-0.9,1.1-1.4,1.7-1.6,1.9c-1.1,3.2-1.6,4.9-1.6,5
	s-0.1,0.4-0.3,0.8v2.6c0,0.2,0.1,0.4,0.3,0.6c1.1,4.7,3.2,8.6,6.4,11.6c2.4,2.2,6.5,4.9,12.5,8.1c0.9,0.4,2,1,3.5,1.6
	c0.4,0,0.7,0,1,0c0.4,0.2,0.7,0.4,1,0.5c0.2,0.1,0.7,0.2,1.6,0.2h2.2c0.2,0.2,1,0.4,2.4,0.5s2.9,0.2,4.7,0.2
	c7.7,0.9,12.4,1.3,14.1,1.3h8.3c0.9,0,2.4-0.2,4.5-0.6h0.6c1.1,0,1.9-0.1,2.6-0.3h2.2c0.9,0,1.6-0.1,2.2-0.3h1.9l7.4-15.9
	c-0.9,0.9-1.8,1.3-2.9,1.3h-1.3c-0.2,0.2-0.6,0.3-1.3,0.3c-3.2,0.6-4.9,1-5.1,1c-2.1,0.4-3.9,0.6-5.1,0.6c-2.1,0.4-3.6,0.6-4.5,0.6
	h-6.4c-1.1,0-1.9-0.1-2.6-0.3c-21.2-0.9-35.3-9.3-42.4-25.2v-0.7C60.7,103.3,60.9,103.3,60.9,103.3z M106.5,49.3
	c-7.1,1.5-12.8,4.5-17.2,8.9s-6.6,9.7-6.6,15.7c0,1.3,0,2.3,0.2,2.9c0.1,0.6,0.4,1.6,0.8,2.9c0,0.2,0.2,1,0.6,2.3
	c0.4,0.2,0.7,0.9,1,1.9c4.1,7.3,9.6,11,16.7,11l1.9-1.6l47.8-2.6l11.2-19.4c0.4,0-0.6-0.4-3.2-1.3c0-0.2-0.2-0.5-0.6-0.8
	c-0.4-0.3-0.8-0.5-1.1-0.5s-0.8-0.3-1.4-1c-2.4-1.3-4.8-2.7-7.4-4.2l-7.7-3.9c-3.9-1.9-9.1-4.1-15.7-6.5c-3.4-1.3-6.4-2.2-9-2.6
	c-2.6-0.4-5.6-0.6-9-0.6L106.5,49.3z M178.7,169.6l-62.9,3.9l-5.8,12.3l51.7,18.4c0.9,0.6,2.1,0.8,3.9,0.3c1.1-0.2,2.4-0.8,3.9-1.6
	c1.5-0.9,3.1-2,4.8-3.6c0.4-0.4,1.1-1.1,2.1-1.9c1-0.9,1.8-1.6,2.4-2.3c3.4-4.1,5.6-7.4,6.4-10c0-0.4,0.2-1.3,0.6-2.6
	c0-0.2,0.1-0.8,0.3-1.6v-4.2c-0.2-0.2-0.3-0.6-0.3-1.3v-0.6c-0.2,0-0.4-0.2-0.5-0.5s-0.2-0.6-0.3-0.8s-1-0.8-2.7-1.6
	c-0.2-0.2-0.6-0.4-1.3-0.6c-0.6-0.2-1-0.4-1.1-0.5s-0.3-0.3-0.5-0.5h-0.6v-0.7L178.7,169.6L178.7,169.6z M165.6,123.4
	c-1.7,1.1-4.5,1.6-8.3,1.6h-2.9c-3.2,0.6-6,1-8.3,1c-0.9,0.2-1.8,0.3-2.9,0.3l-9.3,14.6l47.2-1.9c0.9,0.6,2.2,1,4.2,1l4.5,1
	c6.6,1.5,13,5.1,19.1,10.8s9.1,12.1,9.1,19.2v0.6c-0.2,0.2-0.3,0.5-0.3,1v2.6c-0.2,0.2-0.3,0.5-0.3,1v1.6c0,0.2-0.1,0.4-0.3,0.6
	c-0.2,0.2-0.4,0.5-0.6,1c-0.2,0.4-0.3,0.9-0.3,1.3c-0.9,1.5-2.6,3.9-5.1,7.1c-0.2,0.4-0.6,1-1.1,1.8s-0.9,1.2-1.1,1.5
	c-0.2,0.2-1.3,1.3-3.2,3.2l-30.2,15.4l25.4,10.7c8.3-5,15.7-12,22.1-21c6.4-9.1,9.6-18.3,9.6-27.8V169c-0.2-1.3-0.5-3.1-1-5.5
	c0-0.6-0.2-1.5-0.6-2.6c-0.6-2.2-1.3-3.9-1.9-5.2c-0.2-0.6-0.6-1.6-1.3-2.7c-0.6-1.2-1.1-2.1-1.3-2.8
	c-11.1-17.5-30.4-26.2-57.8-26.2L165.6,123.4z"/>
</svg>
